<svg width="430" height="391" viewBox="0 0 430 391" fill="none" xmlns="http://www.w3.org/2000/svg">
<g clip-path="url(#clip0_12_730)">
<path d="M152.819 90.9798C152.606 90.9796 152.401 90.8986 152.245 90.753C152.089 90.6075 151.994 90.4082 151.979 90.1954C151.427 82.7016 148.066 75.6925 142.569 70.5705C137.071 65.4485 129.842 62.5916 122.328 62.5714C121.428 62.5714 120.484 62.6171 119.52 62.7073C119.358 62.7224 119.196 62.6908 119.053 62.6163C118.909 62.5417 118.79 62.4273 118.709 62.2868C115.258 56.2453 110.103 51.3541 103.889 48.2235C97.6755 45.093 90.6772 43.8617 83.768 44.6835C76.8588 45.5052 70.3446 48.3435 65.0383 52.8442C59.732 57.3449 55.8687 63.3086 53.9305 69.9912C53.8793 70.1702 53.7701 70.3272 53.6199 70.4374C53.4697 70.5476 53.2872 70.6047 53.101 70.5997L52.8767 70.5929C52.7601 70.589 52.6435 70.5849 52.5259 70.5849C46.8266 70.6028 41.3047 72.5687 36.8765 76.1566C32.4482 79.7446 29.3799 84.7387 28.1805 90.3104C28.1405 90.4997 28.0367 90.6696 27.8865 90.7915C27.7362 90.9134 27.5486 90.9799 27.3551 90.9799H-29.1565C-29.3798 90.9793 -29.5938 90.8902 -29.7515 90.732C-29.9092 90.5739 -29.9977 90.3597 -29.9977 90.1364C-29.9977 89.913 -29.9092 89.6988 -29.7515 89.5407C-29.5938 89.3826 -29.3798 89.2934 -29.1565 89.2929H26.68C28.0856 83.4975 31.3919 78.34 36.0713 74.6433C40.7507 70.9467 46.5335 68.9239 52.4968 68.8979C54.6197 62.0308 58.6913 55.928 64.2167 51.3309C69.7422 46.7338 76.4838 43.8403 83.6225 43.0019C90.7612 42.1635 97.9898 43.4163 104.43 46.608C110.87 49.7998 116.245 54.7932 119.901 60.9816C120.731 60.9169 121.545 60.8844 122.328 60.8844C130.268 60.9059 137.908 63.9252 143.718 69.338C149.528 74.7509 153.079 82.158 153.662 90.0773C153.669 90.1878 153.655 90.2987 153.62 90.4038C153.585 90.5089 153.53 90.606 153.457 90.6896C153.384 90.7733 153.296 90.8418 153.197 90.8912C153.098 90.9407 152.99 90.9701 152.879 90.9779C152.859 90.9792 152.839 90.9798 152.819 90.9798Z" fill="#CBCBCB"/>
<path d="M142.783 101.795H4.44505C4.22134 101.795 4.00679 101.706 3.8486 101.548C3.6904 101.39 3.60153 101.175 3.60153 100.952C3.60153 100.728 3.6904 100.513 3.8486 100.355C4.00679 100.197 4.22134 100.108 4.44505 100.108H142.783C143.007 100.108 143.221 100.197 143.38 100.355C143.538 100.513 143.627 100.728 143.627 100.952C143.627 101.175 143.538 101.39 143.38 101.548C143.221 101.706 143.007 101.795 142.783 101.795Z" fill="#CBCBCB"/>
<path d="M38.186 114.026H-8.20788C-8.31885 114.027 -8.42877 114.005 -8.53137 113.963C-8.63397 113.921 -8.72723 113.859 -8.8058 113.78C-8.88436 113.702 -8.9467 113.609 -8.98923 113.506C-9.03176 113.404 -9.05365 113.294 -9.05365 113.183C-9.05365 113.072 -9.03176 112.962 -8.98923 112.86C-8.9467 112.757 -8.88436 112.664 -8.8058 112.586C-8.72723 112.507 -8.63397 112.445 -8.53137 112.403C-8.42877 112.361 -8.31885 112.339 -8.20788 112.339H38.186C38.4093 112.34 38.6233 112.429 38.781 112.587C38.9387 112.745 39.0273 112.96 39.0273 113.183C39.0273 113.406 38.9387 113.62 38.781 113.779C38.6233 113.937 38.4093 114.026 38.186 114.026Z" fill="#CBCBCB"/>
<path d="M81.562 278.155C81.562 312.448 45.6091 328.857 45.6091 328.857C45.6091 328.857 9.28746 312.448 8.54996 278.155C8.11648 257.997 24.8943 241.648 45.056 241.648C49.85 241.648 54.5971 242.593 59.0262 244.427C63.4553 246.262 67.4797 248.951 70.8696 252.341C74.2595 255.731 76.9485 259.755 78.7831 264.184C80.6177 268.613 81.562 273.36 81.562 278.155Z" fill="#E5E5E5"/>
<path d="M57.7781 330.885H33.4406L30.4903 319.085H60.7277L57.7781 330.885Z" fill="#CBCBCB"/>
<path d="M56.9482 351.065H34.2701V362.883H56.9482V351.065Z" fill="white"/>
<path d="M57.1326 363.067H34.0858V350.88H57.1326V363.067ZM34.4546 362.699H56.7638V351.249H34.4546V362.699Z" fill="#CBCBCB"/>
<path d="M50.2579 332.277H40.9607L39.8937 330.6H51.3248L50.2579 332.277Z" fill="#CBCBCB"/>
<path d="M33.9935 330.885H33.6248V348.954H33.9935V330.885Z" fill="#CBCBCB"/>
<path d="M57.5935 330.885H57.2248V348.954H57.5935V330.885Z" fill="#CBCBCB"/>
<path d="M49.3053 318.885L49.0801 318.593C59.733 310.378 72.4316 296.304 72.4316 275.909C72.4401 268.766 70.3394 261.78 66.393 255.826C62.4465 249.872 56.83 245.216 50.2479 242.442L50.3916 242.102C57.0405 244.905 62.714 249.608 66.7005 255.622C70.687 261.637 72.8089 268.694 72.8004 275.909C72.8004 296.454 60.0236 310.619 49.3053 318.885Z" fill="#CBCBCB"/>
<path d="M37.5053 318.885L37.2802 318.593C47.933 310.378 60.6317 296.304 60.6317 275.91C60.6346 268.815 58.5591 261.874 54.6616 255.946C50.7641 250.017 45.2153 245.36 38.7006 242.55L38.8468 242.212C45.4276 245.05 51.0327 249.755 54.9697 255.743C58.9068 261.732 61.0034 268.743 61.0005 275.91C61.0005 296.454 48.2237 310.619 37.5053 318.885Z" fill="#CBCBCB"/>
<path d="M52.6067 318.885C41.8884 310.619 29.1116 296.454 29.1116 275.91C29.1087 268.743 31.2053 261.732 35.1424 255.743C39.0796 249.755 44.6847 245.05 51.2656 242.212L51.4118 242.55C44.8971 245.36 39.3482 250.017 35.4506 255.946C31.553 261.874 29.4775 268.815 29.4804 275.91C29.4804 296.304 42.179 310.378 52.8318 318.593L52.6067 318.885Z" fill="#CBCBCB"/>
<path d="M40.8067 318.885C30.0883 310.62 17.3116 296.455 17.3116 275.91C17.2995 268.666 19.4365 261.581 23.452 255.552C27.4676 249.523 33.1812 244.821 39.8701 242.04L40.0122 242.38C33.3906 245.133 27.7343 249.788 23.7591 255.757C19.7839 261.725 17.6684 268.739 17.6803 275.91C17.6803 296.305 30.379 310.378 41.0318 318.593L40.8067 318.885Z" fill="#CBCBCB"/>
<path d="M45.2404 241.648H44.8716V319.086H45.2404V241.648Z" fill="#CBCBCB"/>
<path d="M40.9014 348.385L34.1397 355.147L34.4004 355.408L41.1621 348.646L40.9014 348.385Z" fill="#CBCBCB"/>
<path d="M44.1887 348.273L34.1373 358.844L34.4045 359.099L44.4559 348.527L44.1887 348.273Z" fill="#CBCBCB"/>
<path d="M59.0684 348.4H31.4124V351.719H59.0684V348.4Z" fill="white"/>
<path d="M59.2528 351.904H31.228V348.217H59.2528V351.904ZM31.5968 351.536H58.8841V348.586H31.5968V351.536Z" fill="#CBCBCB"/>
<path d="M151.141 191.243C151.141 213.879 127.411 224.709 127.411 224.709C127.411 224.709 103.437 213.879 102.95 191.243C102.664 177.939 113.738 167.148 127.046 167.148C133.436 167.148 139.565 169.686 144.084 174.205C148.603 178.724 151.141 184.853 151.141 191.243Z" fill="#E5E5E5"/>
<path d="M135.443 226.048H119.379L117.432 218.26H137.39L135.443 226.048Z" fill="#CBCBCB"/>
<path d="M134.895 239.368H119.926V247.169H134.895V239.368Z" fill="white"/>
<path d="M135.017 247.29H119.805V239.246H135.017V247.29ZM120.048 247.047H134.773V239.49H120.048V247.047Z" fill="#CBCBCB"/>
<path d="M130.479 226.967H124.342L123.638 225.86H131.183L130.479 226.967Z" fill="#CBCBCB"/>
<path d="M119.744 226.049H119.501V237.975H119.744V226.049Z" fill="#CBCBCB"/>
<path d="M135.321 226.049H135.077V237.975H135.321V226.049Z" fill="#CBCBCB"/>
<path d="M129.85 218.128L129.702 217.935C136.733 212.513 145.115 203.224 145.115 189.763C145.12 185.048 143.734 180.437 141.129 176.507C138.524 172.577 134.817 169.504 130.473 167.673L130.567 167.448C134.956 169.298 138.701 172.403 141.332 176.372C143.963 180.342 145.364 185 145.358 189.763C145.358 203.323 136.925 212.672 129.85 218.128Z" fill="#CBCBCB"/>
<path d="M122.062 218.128L121.913 217.935C128.944 212.513 137.326 203.224 137.326 189.762C137.328 185.079 135.958 180.498 133.386 176.585C130.813 172.672 127.151 169.599 122.851 167.744L122.947 167.52C127.291 169.394 130.99 172.499 133.589 176.452C136.188 180.404 137.571 185.032 137.569 189.762C137.569 203.323 129.136 212.672 122.062 218.128Z" fill="#CBCBCB"/>
<path d="M132.029 218.128C124.955 212.672 116.522 203.322 116.522 189.762C116.52 185.032 117.904 180.404 120.502 176.451C123.101 172.499 126.801 169.394 131.144 167.52L131.241 167.743C126.941 169.598 123.278 172.672 120.706 176.585C118.133 180.498 116.763 185.079 116.765 189.762C116.765 203.223 125.147 212.513 132.178 217.935L132.029 218.128Z" fill="#CBCBCB"/>
<path d="M124.241 218.128C117.167 212.672 108.733 203.323 108.733 189.762C108.725 184.981 110.136 180.305 112.786 176.325C115.437 172.346 119.208 169.242 123.623 167.407L123.717 167.631C119.346 169.448 115.613 172.521 112.989 176.46C110.365 180.4 108.969 185.029 108.977 189.762C108.977 203.224 117.358 212.513 124.39 217.935L124.241 218.128Z" fill="#CBCBCB"/>
<path d="M127.168 167.148H126.924V218.26H127.168V167.148Z" fill="#CBCBCB"/>
<path d="M124.303 237.599L119.84 242.062L120.012 242.235L124.475 237.772L124.303 237.599Z" fill="#CBCBCB"/>
<path d="M126.473 237.525L119.839 244.503L120.015 244.67L126.649 237.693L126.473 237.525Z" fill="#CBCBCB"/>
<path d="M136.294 237.609H118.04V239.8H136.294V237.609Z" fill="white"/>
<path d="M136.416 239.921H117.919V237.487H136.416V239.921ZM118.162 239.678H136.173V237.731H118.162V239.678Z" fill="#CBCBCB"/>
<path d="M352.873 222.19C353.026 222.19 353.173 222.132 353.285 222.028C353.397 221.923 353.465 221.781 353.476 221.628C353.871 216.257 356.28 211.232 360.221 207.561C364.162 203.89 369.344 201.842 374.729 201.827C375.374 201.827 376.051 201.86 376.742 201.925C376.858 201.936 376.974 201.913 377.077 201.86C377.18 201.806 377.265 201.724 377.323 201.623C379.797 197.293 383.492 193.787 387.946 191.543C392.4 189.299 397.416 188.417 402.368 189.006C407.321 189.595 411.99 191.629 415.794 194.855C419.597 198.081 422.366 202.356 423.756 207.146C423.792 207.274 423.871 207.387 423.978 207.466C424.086 207.545 424.217 207.586 424.35 207.582L424.511 207.577C424.595 207.574 424.678 207.571 424.762 207.571C428.848 207.584 432.806 208.993 435.98 211.565C439.154 214.137 441.353 217.717 442.213 221.71C442.242 221.846 442.316 221.968 442.424 222.055C442.531 222.143 442.666 222.19 442.805 222.19H483.311C483.391 222.191 483.47 222.175 483.543 222.145C483.617 222.115 483.684 222.07 483.74 222.014C483.796 221.958 483.841 221.891 483.872 221.817C483.902 221.744 483.918 221.665 483.918 221.586C483.918 221.506 483.902 221.427 483.872 221.354C483.841 221.28 483.796 221.214 483.74 221.157C483.684 221.101 483.617 221.057 483.543 221.027C483.47 220.996 483.391 220.981 483.311 220.981H443.288C442.281 216.827 439.911 213.13 436.557 210.48C433.203 207.831 429.058 206.381 424.783 206.362C423.262 201.44 420.343 197.065 416.383 193.77C412.422 190.475 407.59 188.401 402.473 187.8C397.356 187.199 392.175 188.097 387.558 190.385C382.942 192.673 379.089 196.252 376.469 200.688C375.874 200.642 375.29 200.618 374.729 200.618C369.038 200.634 363.562 202.798 359.397 206.678C355.233 210.558 352.687 215.867 352.27 221.543C352.264 221.623 352.274 221.702 352.299 221.777C352.324 221.853 352.364 221.922 352.416 221.982C352.468 222.042 352.532 222.091 352.603 222.127C352.674 222.162 352.751 222.183 352.83 222.189C352.845 222.19 352.859 222.19 352.873 222.19Z" fill="#CBCBCB"/>
<path d="M360.067 229.943H459.226C459.387 229.943 459.541 229.879 459.654 229.766C459.767 229.652 459.831 229.498 459.831 229.338C459.831 229.178 459.767 229.024 459.654 228.91C459.541 228.797 459.387 228.733 459.226 228.733H360.067C359.907 228.733 359.753 228.797 359.64 228.91C359.527 229.024 359.463 229.178 359.463 229.338C359.463 229.498 359.527 229.652 359.64 229.766C359.753 229.879 359.907 229.943 360.067 229.943Z" fill="#CBCBCB"/>
<path d="M280.515 384.599H278.525L277.578 376.923H280.515V384.599Z" fill="#FF395D"/>
<path d="M281.023 386.528H274.606V386.447C274.606 385.785 274.87 385.15 275.338 384.682C275.806 384.213 276.441 383.95 277.103 383.949H281.023V386.528Z" fill="#2F2E41"/>
<path d="M306.18 380.828L304.474 381.853L299.709 375.76L302.227 374.247L306.18 380.828Z" fill="#FF395D"/>
<path d="M302.109 385.525L302.067 385.455C301.726 384.887 301.625 384.207 301.785 383.565C301.946 382.922 302.354 382.37 302.922 382.028L306.281 380.009L307.61 382.22L302.109 385.525Z" fill="#2F2E41"/>
<path d="M281.032 383.015L280.998 383.015C280.03 383.012 279.062 382.956 278.1 382.848C277.734 382.812 277.336 382.773 276.856 382.733L276.84 382.73C276.513 382.633 276.504 379.566 276.643 369.068C276.714 363.691 276.794 357.597 276.698 353.716L276.697 353.677L276.726 353.652C278.457 352.135 280.523 351.048 282.754 350.482C284.985 349.915 287.319 349.885 289.564 350.393L289.599 350.4L289.618 350.431C291.574 353.741 294.527 358.508 297.383 363.118C303.94 373.702 305.815 376.815 305.609 377.049L305.585 377.068C305.137 377.292 304.801 377.465 304.515 377.611C303.384 378.197 302.222 378.721 301.034 379.181L300.981 379.203L300.943 379.161C294.29 371.871 288.754 363.728 285.33 356.2C284.93 358.77 284.444 362.126 283.931 365.672C282.455 375.868 281.458 382.582 281.056 382.991L281.032 383.015Z" fill="#2F2E41"/>
<path d="M282.825 354.5C286.792 354.482 290.733 355.142 294.477 356.451C294.608 350.164 292.501 344.035 288.531 339.158L288.502 339.123L288.517 339.08C289.562 336.06 290.642 332.939 291.608 329.833L291.593 329.781C290.916 327.375 289.463 324.943 287.151 322.347C286.9 322.087 286.56 321.932 286.2 321.914C285.839 321.896 285.485 322.015 285.209 322.248C283.183 324.101 281.606 326.389 280.596 328.942C279.585 331.494 279.169 334.242 279.378 336.979L279.379 336.994L279.375 337.01C277.565 343.143 276.907 346.293 276.328 349.072C275.905 351.099 275.539 352.855 274.803 355.363C277.439 354.79 280.128 354.5 282.825 354.5Z" fill="#CBCBCB"/>
<path opacity="0.1" d="M288.665 335.112L282.776 347.933L279.411 344.528L288.665 335.112Z" fill="black"/>
<path d="M286.147 321.098C288.461 321.098 290.337 319.222 290.337 316.908C290.337 314.594 288.461 312.718 286.147 312.718C283.833 312.718 281.958 314.594 281.958 316.908C281.958 319.222 283.833 321.098 286.147 321.098Z" fill="#FF395D"/>
<path d="M281.067 314.542H287.72V311.642C286.26 311.062 284.831 310.568 283.967 311.642C283.198 311.642 282.461 311.947 281.917 312.491C281.373 313.035 281.067 313.773 281.067 314.542Z" fill="#2F2E41"/>
<path d="M288.088 311.131C292.066 311.131 293.179 316.116 293.179 318.929C293.179 320.497 292.47 321.058 291.355 321.248L290.961 319.149L290.039 321.338C289.726 321.34 289.397 321.334 289.056 321.328L288.744 320.684L288.047 321.316C285.255 321.32 282.998 321.727 282.998 318.929C282.998 316.116 283.974 311.131 288.088 311.131Z" fill="#2F2E41"/>
<path d="M408.225 117.559C408.225 227.993 292.448 280.835 292.448 280.835C292.448 280.835 175.484 227.993 173.109 117.559C171.713 52.6478 225.741 0 290.667 0C355.593 0 408.225 52.6328 408.225 117.559Z" fill="#FF395D"/>
<path d="M294.932 383.731H292.491L291.33 374.318H294.932V383.731Z" fill="#FFB7B7"/>
<path d="M290.749 383.034H295.455V385.997H287.785C287.785 385.608 287.862 385.223 288.011 384.863C288.16 384.504 288.378 384.177 288.653 383.902C288.928 383.627 289.255 383.409 289.615 383.26C289.974 383.111 290.36 383.034 290.749 383.034Z" fill="#2F2E41"/>
<path d="M304.089 383.731H301.649L300.487 374.318H304.09L304.089 383.731Z" fill="#FFB7B7"/>
<path d="M299.905 383.034H304.612V385.997H296.942C296.942 385.212 297.254 384.458 297.81 383.902C298.366 383.346 299.119 383.034 299.905 383.034Z" fill="#2F2E41"/>
<path d="M303.79 355.696C303.527 355.527 303.305 355.302 303.138 355.038C302.971 354.773 302.865 354.476 302.825 354.166C302.786 353.855 302.816 353.54 302.911 353.243C303.007 352.945 303.167 352.672 303.38 352.443L301.773 329.64L306.401 330.089L306.529 352.42C306.89 352.803 307.098 353.305 307.114 353.831C307.13 354.357 306.952 354.871 306.615 355.274C306.277 355.678 305.803 355.944 305.283 356.022C304.762 356.1 304.231 355.984 303.79 355.696Z" fill="#FFB7B7"/>
<path d="M294.817 378.989L292.13 378.861C291.902 378.85 291.686 378.752 291.527 378.586C291.368 378.421 291.279 378.201 291.277 377.972L291.09 350.79C291.089 350.661 291.116 350.533 291.169 350.415C291.222 350.298 291.3 350.193 291.397 350.108C291.494 350.023 291.609 349.961 291.733 349.924C291.856 349.888 291.987 349.878 292.114 349.897L302.862 351.457C303.074 351.487 303.269 351.592 303.41 351.754C303.551 351.915 303.629 352.123 303.629 352.337L305.011 377.524C305.012 377.643 304.99 377.76 304.945 377.869C304.901 377.979 304.835 378.078 304.751 378.162C304.668 378.246 304.569 378.313 304.46 378.358C304.351 378.404 304.234 378.427 304.116 378.427H301.219C301.006 378.428 300.799 378.352 300.636 378.213C300.474 378.074 300.367 377.882 300.335 377.67C300.335 377.67 298.147 358.778 297.846 358.789C297.544 358.794 295.749 378.201 295.749 378.201C295.722 378.418 295.617 378.618 295.453 378.763C295.29 378.909 295.078 378.989 294.86 378.99C294.845 378.99 294.831 378.99 294.817 378.989Z" fill="#2F2E41"/>
<path d="M302.821 337.302C302.713 337.224 302.623 337.122 302.559 337.005C302.495 336.888 302.458 336.758 302.451 336.625L302.112 330.479C302.078 329.87 302.271 329.27 302.654 328.795C303.036 328.32 303.581 328.003 304.183 327.906C304.785 327.809 305.402 327.938 305.914 328.269C306.427 328.6 306.798 329.108 306.958 329.697L308.448 335.192C308.51 335.421 308.478 335.666 308.36 335.872C308.242 336.078 308.047 336.228 307.818 336.291L303.58 337.44C303.451 337.475 303.316 337.481 303.185 337.457C303.053 337.433 302.929 337.38 302.821 337.302Z" fill="#3F3D56"/>
<path d="M298.862 322.696C301.562 322.696 303.751 320.507 303.751 317.807C303.751 315.107 301.562 312.918 298.862 312.918C296.162 312.918 293.973 315.107 293.973 317.807C293.973 320.507 296.162 322.696 298.862 322.696Z" fill="#FFB7B7"/>
<path d="M302.322 321.674C302.118 321.894 301.854 322.052 301.564 322.128C301.273 322.204 300.966 322.195 300.68 322.103C300.394 322.011 300.14 321.839 299.948 321.608C299.756 321.376 299.635 321.095 299.597 320.796C299.588 320.693 299.589 320.59 299.599 320.487C299.661 319.899 300 319.365 299.919 318.744C299.9 318.59 299.843 318.443 299.752 318.317C299.025 317.343 297.319 318.752 296.633 317.871C296.212 317.331 296.707 316.48 296.384 315.876C295.958 315.079 294.696 315.472 293.905 315.036C293.024 314.55 293.077 313.2 293.657 312.378C294.034 311.893 294.513 311.496 295.061 311.217C295.609 310.938 296.212 310.784 296.826 310.764C298.057 310.735 299.279 310.974 300.408 311.463C301.741 311.897 302.918 312.713 303.792 313.81C304.244 314.529 304.53 315.34 304.631 316.183C304.731 317.027 304.642 317.882 304.371 318.687C304.075 319.674 303.067 320.88 302.322 321.674Z" fill="#2F2E41"/>
<path d="M303.741 325.961C303.657 325.9 303.57 325.84 303.482 325.781C303.012 325.469 302.504 325.22 301.97 325.04V323.755H298.188V324.947C296.934 325.293 295.81 326 294.954 326.98C294.099 327.96 293.551 329.169 293.378 330.458L290.803 349.578C290.786 349.697 290.794 349.819 290.826 349.935C290.858 350.052 290.913 350.16 290.988 350.255C291.061 350.349 291.153 350.427 291.258 350.484C291.362 350.541 291.477 350.576 291.596 350.588C293.4 350.822 295.139 351.417 296.707 352.339C297.846 352.97 299.129 353.297 300.431 353.289C301.465 353.285 302.49 353.103 303.462 352.75C303.626 352.689 303.769 352.581 303.873 352.439C303.976 352.297 304.035 352.128 304.042 351.952C304.135 349.895 304.678 339.304 306.257 332.843C306.564 331.576 306.489 330.246 306.041 329.021C305.593 327.797 304.793 326.732 303.741 325.961Z" fill="#3F3D56"/>
<path d="M331.635 287.365H253.263L243.763 249.366H341.135L331.635 287.365Z" fill="#3F3D56"/>
<path d="M328.963 352.349H255.935V390.406H328.963V352.349Z" fill="white"/>
<path d="M329.556 391H255.34V351.755H329.556V391ZM256.528 389.812H328.369V352.943H256.528V389.812Z" fill="#3F3D56"/>
<path d="M307.419 291.846H277.479L274.043 286.446H310.855L307.419 291.846Z" fill="#3F3D56"/>
<path d="M255.044 287.365H253.856V345.55H255.044V287.365Z" fill="#3F3D56"/>
<path d="M331.041 287.365H329.853V345.55H331.041V287.365Z" fill="#3F3D56"/>
<path d="M304.351 248.722L303.626 247.782C337.931 221.327 378.823 176.007 378.823 110.332C378.851 87.3295 372.086 64.8315 359.377 45.6589C346.669 26.4863 328.583 11.4927 307.386 2.55861L307.849 1.46509C329.26 10.4899 347.53 25.6355 360.368 45.0027C373.205 64.3698 380.038 87.0962 380.011 110.332C380.011 176.489 338.867 222.105 304.351 248.722Z" fill="#3F3D56"/>
<path d="M266.352 248.723L265.627 247.783C299.932 221.329 340.825 176.008 340.825 110.332C340.834 87.4847 334.151 65.135 321.6 46.0437C309.049 26.9524 291.18 11.9559 270.202 2.90646L270.672 1.81641C291.864 10.9577 309.914 26.1064 322.592 45.3914C335.27 64.6764 342.022 87.2529 342.012 110.332C342.012 176.49 300.868 222.106 266.352 248.723Z" fill="#3F3D56"/>
<path d="M314.982 248.723C280.467 222.106 239.323 176.49 239.323 110.332C239.313 87.2525 246.065 64.6759 258.743 45.3908C271.422 26.1057 289.472 10.957 310.664 1.81592L311.134 2.90596C290.155 11.9552 272.287 26.9518 259.736 46.0431C247.184 65.1345 240.501 87.4844 240.51 110.332C240.51 176.008 281.403 221.328 315.707 247.782L314.982 248.723Z" fill="#3F3D56"/>
<path d="M276.984 248.722C242.468 222.105 201.324 176.49 201.324 110.332C201.285 87.0045 208.167 64.1903 221.098 44.7754C234.029 25.3605 252.428 10.2175 273.968 1.26245L274.425 2.35829C253.102 11.2233 234.887 26.2141 222.086 45.434C209.285 64.6538 202.473 87.2389 202.511 110.332C202.511 176.007 243.404 221.328 277.709 247.782L276.984 248.722Z" fill="#3F3D56"/>
<path d="M291.261 0H290.073V249.366H291.261V0Z" fill="#3F3D56"/>
<path d="M277.289 343.72L255.515 365.495L256.354 366.334L278.129 344.56L277.289 343.72Z" fill="#3F3D56"/>
<path d="M287.874 343.359L255.506 377.401L256.366 378.219L288.734 344.177L287.874 343.359Z" fill="#3F3D56"/>
<path d="M335.791 343.769H246.732V354.456H335.791V343.769Z" fill="white"/>
<path d="M336.385 355.05H246.138V343.176H336.385V355.05ZM247.326 353.863H335.198V344.363H247.326V353.863Z" fill="#3F3D56"/>
<path d="M275.536 348.74C275.774 348.723 276.006 348.654 276.214 348.539C276.423 348.423 276.604 348.263 276.744 348.07C276.884 347.877 276.98 347.655 277.026 347.421C277.071 347.186 277.064 346.945 277.006 346.713L281.859 343.534L279.091 342.339L274.907 345.541C274.525 345.664 274.201 345.924 273.997 346.27C273.793 346.616 273.724 347.025 273.801 347.419C273.879 347.814 274.098 348.166 274.418 348.409C274.738 348.652 275.135 348.77 275.536 348.74Z" fill="#FF395D"/>
<path d="M280.205 346.45L280.143 346.407C278.989 345.557 277.706 344.678 276.467 343.828L276.392 343.777L276.451 343.708C279.097 340.612 281.746 337.378 284.309 334.249L284.304 334.238L284.328 334.225L284.338 334.213L284.344 334.218L284.359 334.21L284.289 334.215L283.5 328.021C283.109 327.377 282.909 326.635 282.924 325.882C282.939 325.129 283.168 324.395 283.584 323.767C284.064 323.09 284.776 322.613 285.585 322.428C286.394 322.244 287.243 322.364 287.969 322.766C288.327 323.007 288.626 323.325 288.845 323.697C289.064 324.068 289.196 324.485 289.232 324.915C289.283 325.298 289.247 325.687 289.128 326.055C289.009 326.422 288.81 326.759 288.544 327.039C288.817 330.045 288.938 333.063 288.905 336.081L288.905 336.109L288.888 336.132C286.156 339.603 283.156 343.055 280.254 346.393L280.205 346.45Z" fill="#CBCBCB"/>
<path d="M281.145 327.411C281.17 327.518 281.186 327.628 281.193 327.737L289.744 332.671L291.822 331.474L294.038 334.375L289.592 337.544L279.836 329.848C279.439 329.995 279.005 330.018 278.594 329.913C278.183 329.808 277.814 329.58 277.535 329.26C277.257 328.94 277.082 328.543 277.035 328.121C276.988 327.699 277.07 327.273 277.271 326.9C277.472 326.526 277.781 326.222 278.159 326.029C278.537 325.835 278.964 325.762 279.385 325.817C279.805 325.873 280.199 326.055 280.514 326.34C280.828 326.624 281.049 326.998 281.145 327.411Z" fill="#FFB7B7"/>
<path d="M290.049 332.252C290.035 332.119 290.05 331.985 290.095 331.859C290.14 331.733 290.212 331.619 290.306 331.525L294.658 327.172C295.09 326.741 295.665 326.484 296.274 326.452C296.883 326.42 297.482 326.615 297.956 326.999C298.43 327.382 298.746 327.928 298.841 328.53C298.937 329.133 298.806 329.749 298.474 330.26L295.375 335.036C295.245 335.235 295.042 335.375 294.81 335.424C294.577 335.474 294.335 335.429 294.136 335.3L290.452 332.91C290.34 332.837 290.246 332.741 290.176 332.627C290.106 332.513 290.063 332.385 290.049 332.252Z" fill="#3F3D56"/>
<path d="M230.837 289.875C230.684 289.875 230.537 289.817 230.425 289.712C230.313 289.608 230.245 289.465 230.235 289.313C229.839 283.941 227.43 278.917 223.49 275.246C219.549 271.574 214.367 269.527 208.981 269.512C208.336 269.512 207.659 269.545 206.968 269.609C206.853 269.62 206.737 269.598 206.633 269.544C206.53 269.491 206.445 269.409 206.387 269.308C203.913 264.978 200.219 261.472 195.765 259.228C191.311 256.984 186.294 256.101 181.342 256.69C176.39 257.279 171.72 259.314 167.917 262.54C164.113 265.766 161.344 270.041 159.955 274.83C159.918 274.959 159.84 275.071 159.732 275.15C159.625 275.229 159.494 275.27 159.36 275.267L159.199 275.262C159.116 275.259 159.032 275.256 158.948 275.256C154.863 275.269 150.905 276.678 147.731 279.25C144.557 281.822 142.357 285.401 141.497 289.395C141.469 289.531 141.394 289.652 141.287 289.74C141.179 289.827 141.045 289.875 140.906 289.875H100.399C100.32 289.875 100.241 289.86 100.167 289.829C100.094 289.799 100.027 289.755 99.9703 289.698C99.914 289.642 99.8693 289.576 99.8388 289.502C99.8083 289.429 99.7926 289.35 99.7926 289.27C99.7926 289.191 99.8083 289.112 99.8388 289.038C99.8693 288.965 99.914 288.898 99.9703 288.842C100.027 288.786 100.094 288.741 100.167 288.711C100.241 288.681 100.32 288.665 100.399 288.666H140.422C141.43 284.512 143.799 280.815 147.154 278.165C150.508 275.515 154.653 274.065 158.927 274.047C160.449 269.125 163.367 264.75 167.328 261.455C171.288 258.16 176.121 256.086 181.238 255.485C186.355 254.884 191.536 255.782 196.152 258.07C200.769 260.358 204.621 263.937 207.242 268.372C207.837 268.326 208.42 268.303 208.981 268.303C214.673 268.318 220.149 270.482 224.313 274.362C228.478 278.242 231.023 283.551 231.441 289.228C231.447 289.307 231.436 289.387 231.411 289.462C231.386 289.537 231.346 289.607 231.294 289.667C231.242 289.727 231.179 289.776 231.108 289.811C231.037 289.847 230.959 289.868 230.88 289.873C230.866 289.874 230.851 289.875 230.837 289.875Z" fill="#CBCBCB"/>
<path d="M223.643 297.627H124.484C124.405 297.627 124.326 297.612 124.252 297.581C124.179 297.551 124.112 297.507 124.056 297.451C123.999 297.394 123.955 297.328 123.924 297.254C123.894 297.181 123.878 297.102 123.878 297.022C123.878 296.943 123.894 296.864 123.924 296.791C123.955 296.717 123.999 296.65 124.056 296.594C124.112 296.538 124.179 296.493 124.252 296.463C124.326 296.433 124.405 296.417 124.484 296.418H223.643C223.804 296.418 223.957 296.481 224.071 296.595C224.184 296.708 224.248 296.862 224.248 297.022C224.248 297.183 224.184 297.337 224.071 297.45C223.957 297.563 223.804 297.627 223.643 297.627Z" fill="#CBCBCB"/>
<path d="M148.669 306.395H115.415C115.335 306.395 115.256 306.38 115.183 306.349C115.109 306.319 115.042 306.275 114.986 306.218C114.929 306.162 114.885 306.095 114.854 306.022C114.824 305.949 114.808 305.87 114.808 305.79C114.808 305.711 114.824 305.632 114.854 305.558C114.885 305.485 114.929 305.418 114.986 305.362C115.042 305.306 115.109 305.261 115.183 305.231C115.256 305.201 115.335 305.185 115.415 305.186H148.669C148.749 305.185 148.828 305.201 148.901 305.231C148.975 305.261 149.042 305.306 149.098 305.362C149.154 305.418 149.199 305.485 149.23 305.558C149.26 305.632 149.276 305.711 149.276 305.79C149.276 305.87 149.26 305.949 149.23 306.022C149.199 306.095 149.154 306.162 149.098 306.218C149.042 306.275 148.975 306.319 148.901 306.349C148.828 306.38 148.749 306.395 148.669 306.395Z" fill="#CBCBCB"/>
</g>
<defs>
<clipPath id="clip0_12_730">
<rect width="513.915" height="391" fill="white" transform="translate(-30)"/>
</clipPath>
</defs>
</svg>
